<?xml version="1.0" encoding="UTF-8"?>
<!DOCTYPE svg PUBLIC "-//W3C//DTD SVG 1.1//EN" "http://www.w3.org/Graphics/SVG/1.1/DTD/svg11.dtd">
<!-- Creator: CorelDRAW 2019 (64-Bit Versión de evaluación) -->
<svg xmlns="http://www.w3.org/2000/svg" xml:space="preserve" width="84.8668mm" height="29.5793mm" version="1.1" style="shape-rendering:geometricPrecision; text-rendering:geometricPrecision; image-rendering:optimizeQuality; fill-rule:evenodd; clip-rule:evenodd"
viewBox="0 0 4423.13 1541.63"
 xmlns:xlink="http://www.w3.org/1999/xlink">
 <defs>
  <style type="text/css">
   <![CDATA[
    .str0 {stroke:#33CC33;stroke-width:8.82;stroke-miterlimit:22.9256}
    .fil2 {fill:#33CC33}
    .fil0 {fill:white}
    .fil1 {fill:#33CC33;fill-rule:nonzero}
    .fil3 {fill:gray;fill-rule:nonzero}
   ]]>
  </style>
 </defs>
 <g id="Capa_x0020_1">
  <metadata id="CorelCorpID_0Corel-Layer"/>
  <g id="logo">
   <polygon class="fil0" points="5.21,5.21 4417.92,5.21 4417.92,1536.42 5.21,1536.42 "/>
   <path class="fil0 str0" d="M511.58 84.02l3399.96 0c278.51,0 506.37,227.87 506.37,506.37l0 0c0,278.51 -227.87,506.37 -506.37,506.37l-3399.96 0c-278.51,0 -506.37,-227.86 -506.37,-506.37l0 0c0,-278.51 227.87,-506.37 506.37,-506.37z"/>
   <path class="fil1" d="M391.21 323.7l54.08 0 0 490.27 208.05 0 0 52.96 -262.13 0 0 -543.24zm356.52 -23.45c11.64,0 21.53,4.16 29.79,12.61 8.27,8.32 12.39,18.53 12.39,30.26 0,11.6 -4.13,21.69 -12.39,30.02 -8.26,8.45 -18.15,12.61 -29.79,12.61 -11.52,0 -21.28,-4.16 -29.54,-12.61 -8.27,-8.32 -12.4,-18.41 -12.4,-30.02 0,-11.73 4.13,-21.94 12.4,-30.26 8.26,-8.45 18.02,-12.61 29.54,-12.61zm-25.41 164.94l51.08 0 0 401.75 -51.08 0 0 -401.75zm157.86 0l51.07 0 0 72c20.65,-27.49 43.44,-48.04 68.35,-61.54 25.04,-13.49 52.21,-20.3 81.62,-20.3 29.92,0 56.45,7.56 79.62,22.82 23.16,15.26 40.31,35.81 51.33,61.66 11.01,25.73 16.52,65.95 16.52,120.55l0 206.55 -51.08 0 0 -191.42c0,-46.15 -2,-77.04 -5.88,-92.55 -6.26,-26.48 -17.77,-46.41 -34.67,-59.9 -16.9,-13.36 -38.93,-20.05 -66.1,-20.05 -31.17,0 -59.08,10.34 -83.62,31.02 -24.66,20.56 -40.93,46.15 -48.69,76.67 -4.88,19.92 -7.39,56.24 -7.39,109.08l0 147.16 -51.07 0 0 -401.75zm794.78 268.59l43.32 22.95c-14.27,27.87 -30.67,50.44 -49.32,67.59 -18.65,17.02 -39.56,30.14 -62.84,39.09 -23.41,8.95 -49.69,13.36 -79.12,13.36 -65.34,0 -116.29,-21.44 -153.1,-64.31 -36.8,-42.87 -55.2,-91.3 -55.2,-145.26 0,-50.82 15.65,-96.22 46.82,-135.94 39.44,-50.57 92.39,-75.91 158.61,-75.91 68.22,0 122.81,25.98 163.49,77.8 28.92,36.57 43.69,82.22 44.19,137.07l-360.52 0c1.01,46.53 15.9,84.61 44.56,114.25 28.8,29.76 64.35,44.64 106.54,44.64 20.4,0 40.31,-3.53 59.59,-10.6 19.28,-7.06 35.68,-16.39 49.19,-28.12 13.52,-11.73 28.16,-30.52 43.81,-56.62zm0.51 -108.19c-6.89,-27.61 -16.9,-49.55 -30.05,-66.08 -13.27,-16.52 -30.67,-29.76 -52.33,-39.84 -21.66,-10.09 -44.44,-15.13 -68.22,-15.13 -39.43,0 -73.23,12.61 -101.52,37.95 -20.78,18.54 -36.3,46.15 -46.94,83.1l299.06 0zm680.36 -210.83l-41.81 39.84c-30.17,-29.76 -63.21,-52.33 -99.14,-67.71 -35.93,-15.39 -70.98,-23.08 -105.16,-23.08 -42.43,0 -82.86,10.47 -121.17,31.4 -38.43,20.93 -68.22,49.3 -89.26,85.24 -21.15,35.82 -31.67,73.64 -31.67,113.62 0,40.86 10.89,79.69 32.67,116.64 21.78,36.82 51.95,65.7 90.38,86.76 38.56,21.06 80.62,31.65 126.43,31.65 55.58,0 102.65,-15.77 141.08,-47.16 38.43,-31.4 61.22,-72.26 68.35,-122.32l-172.01 0 0 -52.96 232.84 0c-0.5,83.86 -25.28,150.57 -74.35,199.87 -49.2,49.3 -114.8,74.02 -197.16,74.02 -99.9,0 -179.01,-34.17 -237.35,-102.64 -44.82,-52.71 -67.22,-113.62 -67.22,-182.85 0,-51.32 12.89,-99.24 38.56,-143.62 25.78,-44.26 61.09,-78.94 105.9,-103.91 44.94,-24.96 95.64,-37.45 152.22,-37.45 45.82,0 89,8.32 129.44,24.84 40.43,16.64 79.99,43.12 118.42,79.82zm105.9 50.44l52.58 0 0 58.76c15.65,-23.2 32.17,-40.36 49.57,-51.7 17.4,-11.23 35.56,-16.9 54.33,-16.9 14.27,0 29.42,4.54 45.57,13.62l-26.79 43.38c-10.77,-4.67 -19.78,-7.06 -27.16,-7.06 -17.15,0 -33.68,7.06 -49.58,21.18 -15.9,14.12 -28.04,36.19 -36.43,65.95 -6.38,22.82 -9.52,69.1 -9.52,138.71l0 135.81 -52.58 0 0 -401.75zm582.22 268.59l43.32 22.95c-14.27,27.87 -30.67,50.44 -49.32,67.59 -18.65,17.02 -39.55,30.14 -62.84,39.09 -23.41,8.95 -49.69,13.36 -79.11,13.36 -65.35,0 -116.3,-21.44 -153.1,-64.31 -36.81,-42.87 -55.21,-91.3 -55.21,-145.26 0,-50.82 15.65,-96.22 46.82,-135.94 39.43,-50.57 92.39,-75.91 158.61,-75.91 68.22,0 122.8,25.98 163.49,77.8 28.92,36.57 43.69,82.22 44.19,137.07l-360.53 0c1.01,46.53 15.9,84.61 44.57,114.25 28.79,29.76 64.35,44.64 106.53,44.64 20.4,0 40.31,-3.53 59.59,-10.6 19.28,-7.06 35.68,-16.39 49.19,-28.12 13.52,-11.73 28.17,-30.52 43.82,-56.62zm0.5 -108.19c-6.88,-27.61 -16.9,-49.55 -30.05,-66.08 -13.26,-16.52 -30.67,-29.76 -52.32,-39.84 -21.66,-10.09 -44.44,-15.13 -68.22,-15.13 -39.43,0 -73.23,12.61 -101.53,37.95 -20.78,18.54 -36.3,46.15 -46.94,83.1l299.06 0zm487.58 108.19l43.32 22.95c-14.27,27.87 -30.67,50.44 -49.32,67.59 -18.65,17.02 -39.55,30.14 -62.84,39.09 -23.41,8.95 -49.69,13.36 -79.12,13.36 -65.34,0 -116.3,-21.44 -153.1,-64.31 -36.8,-42.87 -55.2,-91.3 -55.2,-145.26 0,-50.82 15.65,-96.22 46.82,-135.94 39.43,-50.57 92.39,-75.91 158.61,-75.91 68.22,0 122.8,25.98 163.49,77.8 28.92,36.57 43.69,82.22 44.19,137.07l-360.52 0c1,46.53 15.9,84.61 44.56,114.25 28.8,29.76 64.35,44.64 106.53,44.64 20.41,0 40.31,-3.53 59.59,-10.6 19.28,-7.06 35.68,-16.39 49.19,-28.12 13.52,-11.73 28.16,-30.52 43.81,-56.62zm0.5 -108.19c-6.88,-27.61 -16.9,-49.55 -30.05,-66.08 -13.26,-16.52 -30.66,-29.76 -52.32,-39.84 -21.66,-10.09 -44.44,-15.13 -68.22,-15.13 -39.43,0 -73.23,12.61 -101.53,37.95 -20.77,18.54 -36.3,46.15 -46.94,83.1l299.06 0zm150.85 -160.39l51.08 0 0 72c20.65,-27.49 43.44,-48.04 68.34,-61.54 25.04,-13.49 52.21,-20.3 81.62,-20.3 29.92,0 56.45,7.56 79.62,22.82 23.16,15.26 40.31,35.81 51.33,61.66 11.01,25.73 16.53,65.95 16.53,120.55l0 206.55 -51.08 0 0 -191.42c0,-46.15 -2,-77.04 -5.88,-92.55 -6.26,-26.48 -17.77,-46.41 -34.68,-59.9 -16.9,-13.36 -38.93,-20.05 -66.1,-20.05 -31.17,0 -59.08,10.34 -83.62,31.02 -24.66,20.56 -40.93,46.15 -48.69,76.67 -4.88,19.92 -7.39,56.24 -7.39,109.08l0 147.16 -51.08 0 0 -401.75z"/>
   <polygon class="fil0" points="2048.3,31.81 2374.84,31.81 2374.84,136.23 2048.3,136.23 "/>
   <path class="fil2" d="M2211.57 5.21c43.21,0 78.24,35.28 78.24,78.81 0,43.53 -35.02,78.81 -78.24,78.81 -43.21,0 -78.24,-35.28 -78.24,-78.81 0,-43.53 35.02,-78.81 78.24,-78.81z"/>
   <path class="fil2" d="M2211.57 5.21c43.21,0 78.24,35.28 78.24,78.81 0,43.53 -35.02,78.81 -78.24,78.81 -43.21,0 -78.24,-35.28 -78.24,-78.81 0,-43.53 35.02,-78.81 78.24,-78.81z"/>
   <path class="fil3" d="M553.02 1223.58l24.52 0 0 148.76c0,17.61 0.34,28.64 1.03,32.99 1.19,9.71 4.02,17.83 8.45,24.35 4.43,6.51 11.24,12 20.43,16.41 9.2,4.4 18.45,6.63 27.81,6.63 8.06,0 15.83,-1.71 23.27,-5.2 7.37,-3.43 13.62,-8.23 18.62,-14.41 5,-6.12 8.63,-13.55 10.95,-22.24 1.65,-6.29 2.5,-19.1 2.5,-38.54l0 -148.76 24.52 0 0 148.64c0,22.01 -2.16,39.79 -6.42,53.34 -4.25,13.55 -12.83,25.38 -25.6,35.39 -12.83,10.06 -28.32,15.09 -46.54,15.09 -19.75,0 -36.67,-4.75 -50.74,-14.24 -14.13,-9.49 -23.56,-22.01 -28.32,-37.67 -3.01,-9.61 -4.49,-26.87 -4.49,-51.92l0 -148.64zm218.23 64.15l23.16 0 0 32.64c9.36,-12.46 19.69,-21.78 30.98,-27.9 11.35,-6.12 23.67,-9.2 37,-9.2 13.56,0 25.6,3.43 36.1,10.35 10.5,6.92 18.27,16.23 23.27,27.96 4.99,11.66 7.49,29.9 7.49,54.65l0 93.65 -23.16 0 0 -86.78c0,-20.93 -0.91,-34.94 -2.66,-41.97 -2.84,-12 -8.06,-21.04 -15.72,-27.15 -7.67,-6.06 -17.65,-9.09 -29.97,-9.09 -14.13,0 -26.79,4.69 -37.91,14.06 -11.18,9.32 -18.56,20.93 -22.08,34.76 -2.22,9.03 -3.35,25.5 -3.35,49.46l0 66.72 -23.16 0 0 -182.14zm215.79 -74.78c5.28,0 9.76,1.89 13.5,5.72 3.75,3.77 5.62,8.4 5.62,13.72 0,5.26 -1.87,9.83 -5.62,13.61 -3.75,3.83 -8.22,5.72 -13.5,5.72 -5.23,0 -9.65,-1.89 -13.39,-5.72 -3.75,-3.77 -5.62,-8.34 -5.62,-13.61 0,-5.32 1.87,-9.94 5.62,-13.72 3.75,-3.83 8.17,-5.72 13.39,-5.72zm-11.52 74.78l23.16 0 0 182.14 -23.16 0 0 -182.14zm252.04 -70.32l0 252.47 -23.15 0 0 -31.33c-9.77,11.95 -20.66,20.93 -32.8,26.87 -12.09,5.95 -25.38,8.92 -39.73,8.92 -25.54,0 -47.39,-9.32 -65.49,-27.96 -18.11,-18.69 -27.13,-41.34 -27.13,-68.09 0,-26.13 9.14,-48.54 27.41,-67.12 18.23,-18.58 40.19,-27.9 65.9,-27.9 14.81,0 28.21,3.2 40.24,9.55 11.98,6.35 22.53,15.89 31.62,28.64l0 -104.05 23.15 0zm-93.19 88.5c-12.94,0 -24.92,3.2 -35.82,9.61 -10.95,6.34 -19.63,15.32 -26.11,26.87 -6.47,11.55 -9.7,23.79 -9.7,36.71 0,12.75 3.23,24.98 9.76,36.64 6.53,11.66 15.27,20.75 26.28,27.21 11.01,6.52 22.82,9.78 35.41,9.78 12.66,0 24.75,-3.2 36.1,-9.66 11.41,-6.46 20.15,-15.15 26.28,-26.18 6.13,-10.98 9.19,-23.38 9.19,-37.16 0,-20.98 -6.87,-38.53 -20.66,-52.65 -13.73,-14.12 -30.65,-21.15 -50.74,-21.15zm231.73 -22.64c27.86,0 51.02,10.12 69.35,30.42 16.69,18.47 25.03,40.36 25.03,65.63 0,25.38 -8.8,47.56 -26.45,66.54 -17.6,18.98 -40.29,28.47 -67.93,28.47 -27.81,0 -50.57,-9.49 -68.17,-28.47 -17.65,-18.98 -26.45,-41.16 -26.45,-66.54 0,-25.16 8.34,-47 25.03,-65.46 18.34,-20.41 41.55,-30.59 69.59,-30.59zm-0.11 22.98c-19.36,0 -35.93,7.15 -49.83,21.49 -13.91,14.35 -20.83,31.73 -20.83,52.08 0,13.09 3.17,25.33 9.48,36.71 6.35,11.32 14.93,20.07 25.71,26.24 10.72,6.17 22.59,9.26 35.47,9.26 12.88,0 24.74,-3.09 35.47,-9.26 10.78,-6.18 19.35,-14.92 25.71,-26.24 6.3,-11.38 9.48,-23.61 9.48,-36.71 0,-20.35 -6.98,-37.73 -20.94,-52.08 -13.91,-14.35 -30.48,-21.49 -49.72,-21.49zm228.61 1.26l-14.98 15.55c-12.43,-12.12 -24.64,-18.18 -36.49,-18.18 -7.55,0 -14.03,2.51 -19.41,7.54 -5.39,4.98 -8.12,10.87 -8.12,17.55 0,5.89 2.22,11.55 6.65,16.87 4.42,5.49 13.79,11.89 27.98,19.27 17.25,8.97 29,17.72 35.24,26.07 6.07,8.46 9.14,18.01 9.14,28.58 0,14.98 -5.22,27.62 -15.67,38.02 -10.44,10.35 -23.5,15.55 -39.16,15.55 -10.44,0 -20.37,-2.29 -29.91,-6.86 -9.48,-4.57 -17.31,-10.86 -23.55,-18.92l14.64 -16.75c11.86,13.49 24.52,20.24 37.86,20.24 9.31,0 17.26,-3.03 23.83,-9.04 6.53,-6 9.82,-13.09 9.82,-21.21 0,-6.69 -2.16,-12.63 -6.47,-17.9 -4.37,-5.14 -14.13,-11.6 -29.34,-19.38 -16.34,-8.46 -27.47,-16.81 -33.31,-25.04 -5.91,-8.23 -8.85,-17.61 -8.85,-28.19 0,-13.77 4.71,-25.21 14.07,-34.36 9.42,-9.09 21.29,-13.67 35.64,-13.67 16.69,0 33.49,8.06 50.4,24.24zm135.53 -19.78l23.15 0 0 33.5c9.2,-12.75 19.76,-22.24 31.73,-28.53 11.98,-6.29 25.31,-9.43 40.07,-9.43 25.7,0 47.67,9.32 65.95,27.9 18.27,18.58 27.41,40.99 27.41,67.12 0,26.76 -9.08,49.4 -27.18,68.09 -18.11,18.64 -39.96,27.96 -65.55,27.96 -14.36,0 -27.59,-3.03 -39.67,-9.04 -12.09,-6.06 -22.98,-15.03 -32.75,-26.98l0 98.1 -23.15 0 0 -248.69zm93.25 18.18c-20.15,0 -37.06,7.03 -50.79,21.15 -13.79,14.12 -20.66,31.67 -20.66,52.65 0,13.78 3.06,26.18 9.19,37.16 6.13,11.04 14.93,19.73 26.34,26.18 11.47,6.46 23.55,9.66 36.21,9.66 12.49,0 24.24,-3.26 35.24,-9.78 11.01,-6.46 19.75,-15.55 26.28,-27.21 6.53,-11.66 9.76,-23.9 9.76,-36.64 0,-12.92 -3.23,-25.16 -9.7,-36.71 -6.47,-11.54 -15.16,-20.52 -26.11,-26.87 -10.9,-6.41 -22.87,-9.61 -35.76,-9.61zm224.47 -22.64c27.86,0 51.02,10.12 69.35,30.42 16.69,18.47 25.03,40.36 25.03,65.63 0,25.38 -8.8,47.56 -26.45,66.54 -17.6,18.98 -40.29,28.47 -67.93,28.47 -27.81,0 -50.57,-9.49 -68.17,-28.47 -17.65,-18.98 -26.44,-41.16 -26.44,-66.54 0,-25.16 8.34,-47 25.02,-65.46 18.34,-20.41 41.55,-30.59 69.59,-30.59zm-0.11 22.98c-19.36,0 -35.93,7.15 -49.83,21.49 -13.91,14.35 -20.83,31.73 -20.83,52.08 0,13.09 3.18,25.33 9.48,36.71 6.35,11.32 14.93,20.07 25.71,26.24 10.73,6.17 22.59,9.26 35.47,9.26 12.88,0 24.74,-3.09 35.47,-9.26 10.78,-6.18 19.35,-14.92 25.71,-26.24 6.3,-11.38 9.48,-23.61 9.48,-36.71 0,-20.35 -6.98,-37.73 -20.94,-52.08 -13.91,-14.35 -30.48,-21.49 -49.72,-21.49zm128.49 -18.52l23.84 0 0 26.64c7.09,-10.52 14.58,-18.29 22.47,-23.44 7.89,-5.09 16.12,-7.66 24.63,-7.66 6.47,0 13.34,2.06 20.66,6.18l-12.14 19.66c-4.88,-2.12 -8.97,-3.2 -12.32,-3.2 -7.78,0 -15.27,3.2 -22.48,9.61 -7.2,6.4 -12.71,16.41 -16.51,29.9 -2.9,10.35 -4.32,31.33 -4.32,62.89l0 61.57 -23.84 0 0 -182.14zm202.51 0l23.15 0 0 85.01c0,20.75 1.14,34.99 3.35,42.82 3.3,11.15 9.71,19.95 19.08,26.41 9.36,6.46 20.6,9.72 33.6,9.72 13,0 24.01,-3.15 33.09,-9.43 9.02,-6.35 15.32,-14.58 18.73,-24.87 2.32,-7.03 3.52,-21.89 3.52,-44.65l0 -85.01 23.83 0 0 89.3c0,25.1 -2.89,43.96 -8.74,56.65 -5.79,12.75 -14.58,22.7 -26.28,29.84 -11.69,7.21 -26.34,10.81 -43.98,10.81 -17.65,0 -32.35,-3.6 -44.15,-10.81 -11.8,-7.15 -20.66,-17.2 -26.45,-30.07 -5.84,-12.87 -8.74,-32.25 -8.74,-58.09l0 -87.64zm210.05 0l23.16 0 0 32.64c9.36,-12.46 19.69,-21.78 30.98,-27.9 11.36,-6.12 23.67,-9.2 37,-9.2 13.56,0 25.6,3.43 36.1,10.35 10.5,6.92 18.27,16.23 23.27,27.96 4.99,11.66 7.49,29.9 7.49,54.65l0 93.65 -23.16 0 0 -86.78c0,-20.93 -0.91,-34.94 -2.66,-41.97 -2.84,-12 -8.06,-21.04 -15.72,-27.15 -7.66,-6.06 -17.65,-9.09 -29.97,-9.09 -14.13,0 -26.78,4.69 -37.91,14.06 -11.18,9.32 -18.56,20.93 -22.08,34.76 -2.22,9.03 -3.35,25.5 -3.35,49.46l0 66.72 -23.16 0 0 -182.14zm301.93 0l23.16 0 0 31.5c8.11,-11.61 16.4,-20.12 24.97,-25.5 11.75,-6.97 24.12,-10.46 37.06,-10.46 8.79,0 17.08,1.71 24.97,5.2 7.89,3.43 14.3,8.06 19.29,13.78 4.99,5.77 9.31,14 13,24.76 7.72,-14.3 17.43,-25.16 29,-32.59 11.64,-7.43 24.12,-11.15 37.52,-11.15 12.48,0 23.55,3.2 33.08,9.55 9.6,6.35 16.69,15.21 21.34,26.59 4.65,11.38 6.98,28.41 6.98,51.16l0 99.31 -23.83 0 0 -99.36c0,-19.55 -1.36,-32.93 -4.14,-40.25 -2.78,-7.32 -7.49,-13.21 -14.19,-17.67 -6.7,-4.46 -14.65,-6.69 -23.95,-6.69 -11.24,0 -21.57,3.37 -30.87,10.06 -9.37,6.69 -16.18,15.6 -20.49,26.75 -4.3,11.15 -6.46,29.79 -6.46,55.86l0 71.29 -23.16 0 0 -93.19c0,-21.95 -1.36,-36.87 -4.08,-44.76 -2.73,-7.89 -7.44,-14.18 -14.19,-18.92 -6.81,-4.74 -14.81,-7.09 -24.12,-7.09 -10.78,0 -20.83,3.26 -30.19,9.78 -9.37,6.51 -16.29,15.32 -20.77,26.36 -4.48,11.03 -6.75,27.96 -6.75,50.71l0 77.12 -23.16 0 0 -182.14zm316.35 0l23.15 0 0 85.01c0,20.75 1.14,34.99 3.35,42.82 3.29,11.15 9.7,19.95 19.07,26.41 9.37,6.46 20.6,9.72 33.6,9.72 12.99,0 24.01,-3.15 33.08,-9.43 9.02,-6.35 15.33,-14.58 18.73,-24.87 2.32,-7.03 3.52,-21.89 3.52,-44.65l0 -85.01 23.83 0 0 89.3c0,25.1 -2.89,43.96 -8.74,56.65 -5.79,12.75 -14.59,22.7 -26.28,29.84 -11.7,7.21 -26.34,10.81 -43.99,10.81 -17.65,0 -32.35,-3.6 -44.15,-10.81 -11.8,-7.15 -20.66,-17.2 -26.44,-30.07 -5.85,-12.87 -8.74,-32.25 -8.74,-58.09l0 -87.64zm210.05 0l23.16 0 0 32.64c9.36,-12.46 19.69,-21.78 30.99,-27.9 11.35,-6.12 23.66,-9.2 37,-9.2 13.56,0 25.6,3.43 36.09,10.35 10.5,6.92 18.27,16.23 23.27,27.96 4.99,11.66 7.49,29.9 7.49,54.65l0 93.65 -23.16 0 0 -86.78c0,-20.93 -0.91,-34.94 -2.66,-41.97 -2.84,-12 -8.06,-21.04 -15.72,-27.15 -7.66,-6.06 -17.65,-9.09 -29.97,-9.09 -14.13,0 -26.78,4.69 -37.91,14.06 -11.18,9.32 -18.56,20.93 -22.08,34.76 -2.21,9.03 -3.35,25.5 -3.35,49.46l0 66.72 -23.16 0 0 -182.14zm388.14 -70.32l0 252.47 -23.15 0 0 -31.33c-9.76,11.95 -20.66,20.93 -32.8,26.87 -12.09,5.95 -25.37,8.92 -39.73,8.92 -25.54,0 -47.39,-9.32 -65.49,-27.96 -18.11,-18.69 -27.13,-41.34 -27.13,-68.09 0,-26.13 9.14,-48.54 27.41,-67.12 18.23,-18.58 40.19,-27.9 65.9,-27.9 14.81,0 28.21,3.2 40.24,9.55 11.98,6.35 22.54,15.89 31.62,28.64l0 -104.05 23.15 0zm-93.19 88.5c-12.94,0 -24.92,3.2 -35.81,9.61 -10.96,6.34 -19.64,15.32 -26.11,26.87 -6.47,11.55 -9.7,23.79 -9.7,36.71 0,12.75 3.23,24.98 9.76,36.64 6.53,11.66 15.27,20.75 26.28,27.21 11.01,6.52 22.82,9.78 35.41,9.78 12.66,0 24.75,-3.2 36.1,-9.66 11.41,-6.46 20.15,-15.15 26.28,-26.18 6.13,-10.98 9.19,-23.38 9.19,-37.16 0,-20.98 -6.86,-38.53 -20.66,-52.65 -13.73,-14.12 -30.65,-21.15 -50.74,-21.15zm231.73 -22.64c27.86,0 51.02,10.12 69.35,30.42 16.69,18.47 25.03,40.36 25.03,65.63 0,25.38 -8.8,47.56 -26.45,66.54 -17.6,18.98 -40.29,28.47 -67.93,28.47 -27.81,0 -50.57,-9.49 -68.17,-28.47 -17.65,-18.98 -26.44,-41.16 -26.44,-66.54 0,-25.16 8.34,-47 25.02,-65.46 18.34,-20.41 41.55,-30.59 69.59,-30.59zm-0.11 22.98c-19.36,0 -35.93,7.15 -49.83,21.49 -13.91,14.35 -20.83,31.73 -20.83,52.08 0,13.09 3.18,25.33 9.48,36.71 6.35,11.32 14.93,20.07 25.71,26.24 10.73,6.17 22.59,9.26 35.47,9.26 12.88,0 24.74,-3.09 35.47,-9.26 10.78,-6.18 19.35,-14.92 25.71,-26.24 6.3,-11.38 9.48,-23.61 9.48,-36.71 0,-20.35 -6.98,-37.73 -20.94,-52.08 -13.91,-14.35 -30.48,-21.49 -49.72,-21.49z"/>
  </g>
 </g>
</svg>
